# xmcd
#
# Track frame offsets: 
#        150
#        19355
#        33442
#        49937
#        61622
#        75025
#        95410
#        124660
#        140905
#        167165
#        182987
#        197587
#        213210
#        247477
#
# Disc length: 3522 seconds
#
# Revision: 1
# Processed by: cddbd v1.5.2PL0 Copyright (c) Steve Scherf et al.
# Submitted via: ExactAudioCopy v0.95b3
#
DISCID=c40dc00e
DTITLE=Various Artist - A Jazz Romance... A Night In With the Verve CD4
DYEAR=1998
DGENRE=Jazz
TTITLE0=Blossom Dearic - I Walk A Little Faster
TTITLE1=Stephane Grappelli - The Nearness of You
TTITLE2=Billie Holiday - PS I Love You
TTITLE3=Dinah Washington - It's Magic
TTITLE4=Johnny Hodges - The Last Time I Saw Paris
TTITLE5=Toots Thielemans and Elis Regina - Volta
TTITLE6=Lester Young - Our Love Is Here To Stay
TTITLE7=Ella Fitzgerald and Louis Armstrong - Stars Fell On Alabama
TTITLE8=Mark Whitfield - It Never Entered My Mind
TTITLE9=Laura Fygi - Les Feuilles Mourtes
TTITLE10=Ben Webster - In the Wee Small Hours of the Morning
TTITLE11=Patti Page - Detour Ahead
TTITLE12=Shirley Horn - Memories of You
TTITLE13=Laurindo Almeida - The Summer Knows
EXTD=YEAR: 1998
EXTT0=
EXTT1=
EXTT2=
EXTT3=
EXTT4=
EXTT5=
EXTT6=
EXTT7=
EXTT8=
EXTT9=
EXTT10=
EXTT11=
EXTT12=
EXTT13=
PLAYORDER=
